<svg width="106" height="91" viewBox="0 0 106 91" fill="none" xmlns="http://www.w3.org/2000/svg">
<g opacity="0.3">
<mask id="mask0_1_11" style="mask-type:alpha" maskUnits="userSpaceOnUse" x="20" y="13" width="8" height="8">
<path d="M23.9096 20.9773C26.0689 20.9773 27.8193 19.1915 27.8193 16.9886C27.8193 14.7858 26.0689 13 23.9096 13C21.7504 13 20 14.7858 20 16.9886C20 19.1915 21.7504 20.9773 23.9096 20.9773Z" fill="url(#paint0_linear_1_11)"/>
</mask>
<g mask="url(#mask0_1_11)">
<path d="M23.9096 20.9773C26.0689 20.9773 27.8193 19.1915 27.8193 16.9886C27.8193 14.7858 26.0689 13 23.9096 13C21.7504 13 20 14.7858 20 16.9886C20 19.1915 21.7504 20.9773 23.9096 20.9773Z" fill="url(#paint1_linear_1_11)"/>
</g>
<mask id="mask1_1_11" style="mask-type:alpha" maskUnits="userSpaceOnUse" x="42" y="13" width="9" height="8">
<path d="M46.5525 20.9773C48.7117 20.9773 50.4621 19.1915 50.4621 16.9886C50.4621 14.7858 48.7117 13 46.5525 13C44.3932 13 42.6428 14.7858 42.6428 16.9886C42.6428 19.1915 44.3932 20.9773 46.5525 20.9773Z" fill="url(#paint2_linear_1_11)"/>
</mask>
<g mask="url(#mask1_1_11)">
<path d="M46.5528 20.9773C48.712 20.9773 50.4625 19.1915 50.4625 16.9886C50.4625 14.7858 48.712 13 46.5528 13C44.3936 13 42.6432 14.7858 42.6432 16.9886C42.6432 19.1915 44.3936 20.9773 46.5528 20.9773Z" fill="url(#paint3_linear_1_11)"/>
</g>
<mask id="mask2_1_11" style="mask-type:alpha" maskUnits="userSpaceOnUse" x="65" y="13" width="9" height="8">
<path d="M69.1953 20.9773C71.3546 20.9773 73.105 19.1915 73.105 16.9886C73.105 14.7858 71.3546 13 69.1953 13C67.0361 13 65.2857 14.7858 65.2857 16.9886C65.2857 19.1915 67.0361 20.9773 69.1953 20.9773Z" fill="url(#paint4_linear_1_11)"/>
</mask>
<g mask="url(#mask2_1_11)">
<path d="M69.196 20.9773C71.3552 20.9773 73.1056 19.1915 73.1056 16.9886C73.1056 14.7858 71.3552 13 69.196 13C67.0368 13 65.2864 14.7858 65.2864 16.9886C65.2864 19.1915 67.0368 20.9773 69.196 20.9773Z" fill="url(#paint5_linear_1_11)"/>
</g>
<mask id="mask3_1_11" style="mask-type:alpha" maskUnits="userSpaceOnUse" x="87" y="13" width="9" height="8">
<path d="M91.8381 20.9773C93.9973 20.9773 95.7477 19.1915 95.7477 16.9886C95.7477 14.7858 93.9973 13 91.8381 13C89.6789 13 87.9285 14.7858 87.9285 16.9886C87.9285 19.1915 89.6789 20.9773 91.8381 20.9773Z" fill="url(#paint6_linear_1_11)"/>
</mask>
<g mask="url(#mask3_1_11)">
<path d="M91.8387 20.9773C93.9979 20.9773 95.7483 19.1915 95.7483 16.9886C95.7483 14.7858 93.9979 13 91.8387 13C89.6795 13 87.9291 14.7858 87.9291 16.9886C87.9291 19.1915 89.6795 20.9773 91.8387 20.9773Z" fill="url(#paint7_linear_1_11)"/>
</g>
<mask id="mask4_1_11" style="mask-type:alpha" maskUnits="userSpaceOnUse" x="20" y="33" width="8" height="9">
<path d="M23.9096 41.0037C26.0689 41.0037 27.8193 39.2179 27.8193 37.015C27.8193 34.8122 26.0689 33.0264 23.9096 33.0264C21.7504 33.0264 20 34.8122 20 37.015C20 39.2179 21.7504 41.0037 23.9096 41.0037Z" fill="url(#paint8_linear_1_11)"/>
</mask>
<g mask="url(#mask4_1_11)">
<path d="M23.9096 41.0037C26.0689 41.0037 27.8193 39.218 27.8193 37.0151C27.8193 34.8122 26.0689 33.0265 23.9096 33.0265C21.7504 33.0265 20 34.8122 20 37.0151C20 39.218 21.7504 41.0037 23.9096 41.0037Z" fill="url(#paint9_linear_1_11)"/>
</g>
<mask id="mask5_1_11" style="mask-type:alpha" maskUnits="userSpaceOnUse" x="42" y="33" width="9" height="9">
<path d="M46.5525 41.0038C48.7117 41.0038 50.4621 39.218 50.4621 37.0151C50.4621 34.8123 48.7117 33.0265 46.5525 33.0265C44.3932 33.0265 42.6428 34.8123 42.6428 37.0151C42.6428 39.218 44.3932 41.0038 46.5525 41.0038Z" fill="url(#paint10_linear_1_11)"/>
</mask>
<g mask="url(#mask5_1_11)">
<path d="M46.5528 41.0037C48.712 41.0037 50.4625 39.2179 50.4625 37.0151C50.4625 34.8122 48.712 33.0264 46.5528 33.0264C44.3936 33.0264 42.6432 34.8122 42.6432 37.0151C42.6432 39.2179 44.3936 41.0037 46.5528 41.0037Z" fill="url(#paint11_linear_1_11)"/>
</g>
<mask id="mask6_1_11" style="mask-type:alpha" maskUnits="userSpaceOnUse" x="65" y="33" width="9" height="9">
<path d="M69.1953 41.0038C71.3546 41.0038 73.105 39.218 73.105 37.0151C73.105 34.8123 71.3546 33.0265 69.1953 33.0265C67.0361 33.0265 65.2857 34.8123 65.2857 37.0151C65.2857 39.218 67.0361 41.0038 69.1953 41.0038Z" fill="url(#paint12_linear_1_11)"/>
</mask>
<g mask="url(#mask6_1_11)">
<path d="M69.196 41.0037C71.3552 41.0037 73.1056 39.2179 73.1056 37.0151C73.1056 34.8122 71.3552 33.0264 69.196 33.0264C67.0368 33.0264 65.2864 34.8122 65.2864 37.0151C65.2864 39.2179 67.0368 41.0037 69.196 41.0037Z" fill="url(#paint13_linear_1_11)"/>
</g>
<mask id="mask7_1_11" style="mask-type:alpha" maskUnits="userSpaceOnUse" x="87" y="33" width="9" height="9">
<path d="M91.8381 41.0038C93.9973 41.0038 95.7477 39.218 95.7477 37.0151C95.7477 34.8123 93.9973 33.0265 91.8381 33.0265C89.6789 33.0265 87.9285 34.8123 87.9285 37.0151C87.9285 39.218 89.6789 41.0038 91.8381 41.0038Z" fill="url(#paint14_linear_1_11)"/>
</mask>
<g mask="url(#mask7_1_11)">
<path d="M91.8387 41.0037C93.9979 41.0037 95.7483 39.2179 95.7483 37.0151C95.7483 34.8122 93.9979 33.0264 91.8387 33.0264C89.6795 33.0264 87.9291 34.8122 87.9291 37.0151C87.9291 39.2179 89.6795 41.0037 91.8387 41.0037Z" fill="url(#paint15_linear_1_11)"/>
</g>
<mask id="mask8_1_11" style="mask-type:alpha" maskUnits="userSpaceOnUse" x="20" y="53" width="8" height="8">
<path d="M23.9096 60.9887C26.0689 60.9887 27.8193 59.2029 27.8193 57C27.8193 54.7971 26.0689 53.0113 23.9096 53.0113C21.7504 53.0113 20 54.7971 20 57C20 59.2029 21.7504 60.9887 23.9096 60.9887Z" fill="url(#paint16_linear_1_11)"/>
</mask>
<g mask="url(#mask8_1_11)">
<path d="M23.9096 60.9888C26.0689 60.9888 27.8193 59.203 27.8193 57.0001C27.8193 54.7972 26.0689 53.0114 23.9096 53.0114C21.7504 53.0114 20 54.7972 20 57.0001C20 59.203 21.7504 60.9888 23.9096 60.9888Z" fill="url(#paint17_linear_1_11)"/>
</g>
<mask id="mask9_1_11" style="mask-type:alpha" maskUnits="userSpaceOnUse" x="42" y="53" width="9" height="8">
<path d="M46.5525 60.9889C48.7117 60.9889 50.4621 59.2032 50.4621 57.0003C50.4621 54.7974 48.7117 53.0116 46.5525 53.0116C44.3932 53.0116 42.6428 54.7974 42.6428 57.0003C42.6428 59.2032 44.3932 60.9889 46.5525 60.9889Z" fill="url(#paint18_linear_1_11)"/>
</mask>
<g mask="url(#mask9_1_11)">
<path d="M46.5528 60.9888C48.712 60.9888 50.4625 59.203 50.4625 57.0001C50.4625 54.7972 48.712 53.0114 46.5528 53.0114C44.3936 53.0114 42.6432 54.7972 42.6432 57.0001C42.6432 59.203 44.3936 60.9888 46.5528 60.9888Z" fill="url(#paint19_linear_1_11)"/>
</g>
<mask id="mask10_1_11" style="mask-type:alpha" maskUnits="userSpaceOnUse" x="65" y="53" width="9" height="8">
<path d="M69.1953 60.9889C71.3546 60.9889 73.105 59.2032 73.105 57.0003C73.105 54.7974 71.3546 53.0116 69.1953 53.0116C67.0361 53.0116 65.2857 54.7974 65.2857 57.0003C65.2857 59.2032 67.0361 60.9889 69.1953 60.9889Z" fill="url(#paint20_linear_1_11)"/>
</mask>
<g mask="url(#mask10_1_11)">
<path d="M69.196 60.9888C71.3552 60.9888 73.1056 59.203 73.1056 57.0001C73.1056 54.7972 71.3552 53.0114 69.196 53.0114C67.0368 53.0114 65.2864 54.7972 65.2864 57.0001C65.2864 59.203 67.0368 60.9888 69.196 60.9888Z" fill="url(#paint21_linear_1_11)"/>
</g>
<mask id="mask11_1_11" style="mask-type:alpha" maskUnits="userSpaceOnUse" x="87" y="53" width="9" height="8">
<path d="M91.8381 60.9889C93.9973 60.9889 95.7477 59.2032 95.7477 57.0003C95.7477 54.7974 93.9973 53.0116 91.8381 53.0116C89.6789 53.0116 87.9285 54.7974 87.9285 57.0003C87.9285 59.2032 89.6789 60.9889 91.8381 60.9889Z" fill="url(#paint22_linear_1_11)"/>
</mask>
<g mask="url(#mask11_1_11)">
<path d="M91.8387 60.9888C93.9979 60.9888 95.7483 59.203 95.7483 57.0001C95.7483 54.7972 93.9979 53.0114 91.8387 53.0114C89.6795 53.0114 87.9291 54.7972 87.9291 57.0001C87.9291 59.203 89.6795 60.9888 91.8387 60.9888Z" fill="url(#paint23_linear_1_11)"/>
</g>
<mask id="mask12_1_11" style="mask-type:alpha" maskUnits="userSpaceOnUse" x="20" y="73" width="8" height="9">
<path d="M23.9096 81.0155C26.0689 81.0155 27.8193 79.2296 27.8193 77.0268C27.8193 74.8239 26.0689 73.0381 23.9096 73.0381C21.7504 73.0381 20 74.8239 20 77.0268C20 79.2296 21.7504 81.0155 23.9096 81.0155Z" fill="url(#paint24_linear_1_11)"/>
</mask>
<g mask="url(#mask12_1_11)">
<path d="M23.9096 81.0152C26.0689 81.0152 27.8193 79.2294 27.8193 77.0265C27.8193 74.8236 26.0689 73.0379 23.9096 73.0379C21.7504 73.0379 20 74.8236 20 77.0265C20 79.2294 21.7504 81.0152 23.9096 81.0152Z" fill="url(#paint25_linear_1_11)"/>
</g>
<mask id="mask13_1_11" style="mask-type:alpha" maskUnits="userSpaceOnUse" x="42" y="73" width="9" height="9">
<path d="M46.5525 81.0155C48.7117 81.0155 50.4621 79.2296 50.4621 77.0268C50.4621 74.8239 48.7117 73.0381 46.5525 73.0381C44.3932 73.0381 42.6428 74.8239 42.6428 77.0268C42.6428 79.2296 44.3932 81.0155 46.5525 81.0155Z" fill="url(#paint26_linear_1_11)"/>
</mask>
<g mask="url(#mask13_1_11)">
<path d="M46.5528 81.0152C48.712 81.0152 50.4625 79.2294 50.4625 77.0265C50.4625 74.8236 48.712 73.0379 46.5528 73.0379C44.3936 73.0379 42.6432 74.8236 42.6432 77.0265C42.6432 79.2294 44.3936 81.0152 46.5528 81.0152Z" fill="url(#paint27_linear_1_11)"/>
</g>
<mask id="mask14_1_11" style="mask-type:alpha" maskUnits="userSpaceOnUse" x="65" y="73" width="9" height="9">
<path d="M69.1953 81.0155C71.3546 81.0155 73.105 79.2296 73.105 77.0268C73.105 74.8239 71.3546 73.0381 69.1953 73.0381C67.0361 73.0381 65.2857 74.8239 65.2857 77.0268C65.2857 79.2296 67.0361 81.0155 69.1953 81.0155Z" fill="url(#paint28_linear_1_11)"/>
</mask>
<g mask="url(#mask14_1_11)">
<path d="M69.196 81.0152C71.3552 81.0152 73.1056 79.2294 73.1056 77.0265C73.1056 74.8236 71.3552 73.0379 69.196 73.0379C67.0368 73.0379 65.2864 74.8236 65.2864 77.0265C65.2864 79.2294 67.0368 81.0152 69.196 81.0152Z" fill="url(#paint29_linear_1_11)"/>
</g>
<mask id="mask15_1_11" style="mask-type:alpha" maskUnits="userSpaceOnUse" x="87" y="73" width="9" height="9">
<path d="M91.8381 81.0155C93.9973 81.0155 95.7477 79.2296 95.7477 77.0268C95.7477 74.8239 93.9973 73.0381 91.8381 73.0381C89.6789 73.0381 87.9285 74.8239 87.9285 77.0268C87.9285 79.2296 89.6789 81.0155 91.8381 81.0155Z" fill="url(#paint30_linear_1_11)"/>
</mask>
<g mask="url(#mask15_1_11)">
<path d="M91.8387 81.0152C93.9979 81.0152 95.7483 79.2294 95.7483 77.0265C95.7483 74.8236 93.9979 73.0379 91.8387 73.0379C89.6795 73.0379 87.9291 74.8236 87.9291 77.0265C87.9291 79.2294 89.6795 81.0152 91.8387 81.0152Z" fill="url(#paint31_linear_1_11)"/>
</g>
</g>
<defs>
<linearGradient id="paint0_linear_1_11" x1="58.076" y1="105.471" x2="2.51396" y2="-32.7764" gradientUnits="userSpaceOnUse">
<stop stop-color="#FFA434"/>
<stop offset="1" stop-color="#FFA434"/>
</linearGradient>
<linearGradient id="paint1_linear_1_11" x1="58.076" y1="105.471" x2="2.51396" y2="-32.7764" gradientUnits="userSpaceOnUse">
<stop stop-color="#FFA434"/>
<stop offset="1" stop-color="#FFA434"/>
</linearGradient>
<linearGradient id="paint2_linear_1_11" x1="80.7188" y1="105.471" x2="25.1569" y2="-32.7764" gradientUnits="userSpaceOnUse">
<stop stop-color="#FFA434"/>
<stop offset="1" stop-color="#FFA434"/>
</linearGradient>
<linearGradient id="paint3_linear_1_11" x1="80.7192" y1="105.471" x2="25.1572" y2="-32.7764" gradientUnits="userSpaceOnUse">
<stop stop-color="#FFA434"/>
<stop offset="1" stop-color="#FFA434"/>
</linearGradient>
<linearGradient id="paint4_linear_1_11" x1="103.362" y1="105.471" x2="47.7998" y2="-32.7764" gradientUnits="userSpaceOnUse">
<stop stop-color="#FFA434"/>
<stop offset="1" stop-color="#FFA434"/>
</linearGradient>
<linearGradient id="paint5_linear_1_11" x1="103.362" y1="105.471" x2="47.8004" y2="-32.7764" gradientUnits="userSpaceOnUse">
<stop stop-color="#FFA434"/>
<stop offset="1" stop-color="#FFA434"/>
</linearGradient>
<linearGradient id="paint6_linear_1_11" x1="126.004" y1="105.471" x2="70.4425" y2="-32.7764" gradientUnits="userSpaceOnUse">
<stop stop-color="#FFA434"/>
<stop offset="1" stop-color="#FFA434"/>
</linearGradient>
<linearGradient id="paint7_linear_1_11" x1="126.005" y1="105.471" x2="70.4431" y2="-32.7764" gradientUnits="userSpaceOnUse">
<stop stop-color="#FFA434"/>
<stop offset="1" stop-color="#FFA434"/>
</linearGradient>
<linearGradient id="paint8_linear_1_11" x1="58.076" y1="125.496" x2="2.5149" y2="-12.7499" gradientUnits="userSpaceOnUse">
<stop stop-color="#FFA434"/>
<stop offset="1" stop-color="#FFA434"/>
</linearGradient>
<linearGradient id="paint9_linear_1_11" x1="58.076" y1="125.496" x2="2.5149" y2="-12.7499" gradientUnits="userSpaceOnUse">
<stop stop-color="#FFA434"/>
<stop offset="1" stop-color="#FFA434"/>
</linearGradient>
<linearGradient id="paint10_linear_1_11" x1="80.7188" y1="125.496" x2="25.1578" y2="-12.7499" gradientUnits="userSpaceOnUse">
<stop stop-color="#FFA434"/>
<stop offset="1" stop-color="#FFA434"/>
</linearGradient>
<linearGradient id="paint11_linear_1_11" x1="80.7192" y1="125.496" x2="25.1582" y2="-12.7499" gradientUnits="userSpaceOnUse">
<stop stop-color="#FFA434"/>
<stop offset="1" stop-color="#FFA434"/>
</linearGradient>
<linearGradient id="paint12_linear_1_11" x1="103.362" y1="125.496" x2="47.8007" y2="-12.7499" gradientUnits="userSpaceOnUse">
<stop stop-color="#FFA434"/>
<stop offset="1" stop-color="#FFA434"/>
</linearGradient>
<linearGradient id="paint13_linear_1_11" x1="103.362" y1="125.496" x2="47.8014" y2="-12.7499" gradientUnits="userSpaceOnUse">
<stop stop-color="#FFA434"/>
<stop offset="1" stop-color="#FFA434"/>
</linearGradient>
<linearGradient id="paint14_linear_1_11" x1="126.004" y1="125.496" x2="70.4435" y2="-12.7499" gradientUnits="userSpaceOnUse">
<stop stop-color="#FFA434"/>
<stop offset="1" stop-color="#FFA434"/>
</linearGradient>
<linearGradient id="paint15_linear_1_11" x1="126.005" y1="125.496" x2="70.4441" y2="-12.7499" gradientUnits="userSpaceOnUse">
<stop stop-color="#FFA434"/>
<stop offset="1" stop-color="#FFA434"/>
</linearGradient>
<linearGradient id="paint16_linear_1_11" x1="58.076" y1="145.482" x2="2.51396" y2="7.23493" gradientUnits="userSpaceOnUse">
<stop stop-color="#FFA434"/>
<stop offset="1" stop-color="#FFA434"/>
</linearGradient>
<linearGradient id="paint17_linear_1_11" x1="58.076" y1="145.482" x2="2.51396" y2="7.23502" gradientUnits="userSpaceOnUse">
<stop stop-color="#FFA434"/>
<stop offset="1" stop-color="#FFA434"/>
</linearGradient>
<linearGradient id="paint18_linear_1_11" x1="80.7188" y1="145.482" x2="25.1569" y2="7.23516" gradientUnits="userSpaceOnUse">
<stop stop-color="#FFA434"/>
<stop offset="1" stop-color="#FFA434"/>
</linearGradient>
<linearGradient id="paint19_linear_1_11" x1="80.7192" y1="145.482" x2="25.1572" y2="7.23498" gradientUnits="userSpaceOnUse">
<stop stop-color="#FFA434"/>
<stop offset="1" stop-color="#FFA434"/>
</linearGradient>
<linearGradient id="paint20_linear_1_11" x1="103.362" y1="145.482" x2="47.7998" y2="7.23516" gradientUnits="userSpaceOnUse">
<stop stop-color="#FFA434"/>
<stop offset="1" stop-color="#FFA434"/>
</linearGradient>
<linearGradient id="paint21_linear_1_11" x1="103.362" y1="145.482" x2="47.8004" y2="7.23498" gradientUnits="userSpaceOnUse">
<stop stop-color="#FFA434"/>
<stop offset="1" stop-color="#FFA434"/>
</linearGradient>
<linearGradient id="paint22_linear_1_11" x1="126.004" y1="145.482" x2="70.4425" y2="7.23516" gradientUnits="userSpaceOnUse">
<stop stop-color="#FFA434"/>
<stop offset="1" stop-color="#FFA434"/>
</linearGradient>
<linearGradient id="paint23_linear_1_11" x1="126.005" y1="145.482" x2="70.4431" y2="7.23498" gradientUnits="userSpaceOnUse">
<stop stop-color="#FFA434"/>
<stop offset="1" stop-color="#FFA434"/>
</linearGradient>
<linearGradient id="paint24_linear_1_11" x1="58.076" y1="165.509" x2="2.51396" y2="27.2617" gradientUnits="userSpaceOnUse">
<stop stop-color="#FFA434"/>
<stop offset="1" stop-color="#FFA434"/>
</linearGradient>
<linearGradient id="paint25_linear_1_11" x1="58.076" y1="165.509" x2="2.51396" y2="27.2615" gradientUnits="userSpaceOnUse">
<stop stop-color="#FFA434"/>
<stop offset="1" stop-color="#FFA434"/>
</linearGradient>
<linearGradient id="paint26_linear_1_11" x1="80.7188" y1="165.509" x2="25.1569" y2="27.2617" gradientUnits="userSpaceOnUse">
<stop stop-color="#FFA434"/>
<stop offset="1" stop-color="#FFA434"/>
</linearGradient>
<linearGradient id="paint27_linear_1_11" x1="80.7192" y1="165.509" x2="25.1572" y2="27.2614" gradientUnits="userSpaceOnUse">
<stop stop-color="#FFA434"/>
<stop offset="1" stop-color="#FFA434"/>
</linearGradient>
<linearGradient id="paint28_linear_1_11" x1="103.362" y1="165.509" x2="47.7998" y2="27.2617" gradientUnits="userSpaceOnUse">
<stop stop-color="#FFA434"/>
<stop offset="1" stop-color="#FFA434"/>
</linearGradient>
<linearGradient id="paint29_linear_1_11" x1="103.362" y1="165.509" x2="47.8004" y2="27.2614" gradientUnits="userSpaceOnUse">
<stop stop-color="#FFA434"/>
<stop offset="1" stop-color="#FFA434"/>
</linearGradient>
<linearGradient id="paint30_linear_1_11" x1="126.004" y1="165.509" x2="70.4425" y2="27.2617" gradientUnits="userSpaceOnUse">
<stop stop-color="#FFA434"/>
<stop offset="1" stop-color="#FFA434"/>
</linearGradient>
<linearGradient id="paint31_linear_1_11" x1="126.005" y1="165.509" x2="70.4431" y2="27.2614" gradientUnits="userSpaceOnUse">
<stop stop-color="#FFA434"/>
<stop offset="1" stop-color="#FFA434"/>
</linearGradient>
</defs>
</svg>
